Coordinates
version=1
nRows=19
nColumns=36
inDegrees=yes

Units are S.I. units (second, meters, Newtons, ...)
If the header above contains a line with 'inDegrees', this indicates whether rotational values are in degrees (yes) or radians (no).

endheader
time	pelvis_tilt	pelvis_list	pelvis_rotation	pelvis_tx	pelvis_ty	pelvis_tz	hip_flexion_r	hip_adduction_r	hip_rotation_r	knee_angle_r	knee_angle_r_beta	ankle_angle_r	subtalar_angle_r	mtp_angle_r	hip_flexion_l	hip_adduction_l	hip_rotation_l	knee_angle_l	knee_angle_l_beta	ankle_angle_l	subtalar_angle_l	mtp_angle_l	lumbar_extension	lumbar_bending	lumbar_rotation	arm_flex_r	arm_add_r	arm_rot_r	elbow_flex_r	pro_sup_r	arm_flex_l	arm_add_l	arm_rot_l	elbow_flex_l	pro_sup_l
      1.87000000	    -22.68233056	      4.38848264	     -3.28048998	     -0.27931279	      0.69214290	     -0.55791386	     76.43433358	      3.65476495	     15.55161763	     91.09543001	      1.58991519	     35.46872122	    -13.84486206	     -7.50008789	     79.76200336	     -6.24592854	     -1.19474997	     88.40518192	      1.54296150	     28.77516138	    -14.43592852	     -7.50008789	    -21.26006164	     -3.65855524	      3.06387618	    135.09526836	     -6.19051214	     32.07036957	     71.91631873	    103.82124299	    136.29030723	     -4.32172962	     28.10273601	     71.36104168	    106.18195036
      1.88000000	    -22.62267167	      4.50482539	     -3.46762510	     -0.27266351	      0.70226328	     -0.55735036	     74.81929240	      3.64766018	     15.68263667	     89.35759622	      1.55958427	     34.27821617	    -15.00342159	     -7.50008291	     78.00295927	     -6.10705732	     -1.39432700	     86.68061941	      1.51286221	     28.00691971	    -15.11615645	     -7.50008291	    -19.89694923	     -3.93737946	      3.22337559	    137.31567462	     -6.32577628	     32.73052068	     72.72373969	    102.66801503	    138.96405645	     -4.49242910	     29.95517866	     71.08792294	    106.43960884
      1.89000000	    -22.55563275	      4.63228722	     -3.64604226	     -0.26557914	      0.71304569	     -0.55676335	     73.08388874	      3.57522643	     15.88769507	     87.48498295	      1.52690100	     33.65289217	    -15.20768449	     -7.50008049	     76.14219065	     -5.89296457	     -1.53599260	     84.85210276	      1.48094857	     27.43350007	    -15.48640819	     -7.50008049	    -18.42845702	     -4.14199629	      3.54281256	    139.37381947	     -6.43276543	     33.38263430	     73.55190540	    102.31363064	    141.07185484	     -4.59663638	     31.27939983	     71.09315599	    106.68397675
      1.90000000	    -22.45460323	      4.73530654	     -3.79490205	     -0.25811417	      0.72465861	     -0.55611063	     71.18458618	      3.50703516	     16.13453953	     85.44546354	      1.49130467	     32.91194787	    -15.37591620	     -7.50007919	     74.20212297	     -5.77069418	     -1.75560703	     82.89175327	      1.44673402	     26.66190285	    -15.61231265	     -7.50007919	    -16.91567115	     -4.27738909	      3.95104565	    141.13267729	     -6.50533733	     33.78420991	     74.52540027	    102.20337626	    142.80155629	     -4.69739538	     32.43002741	     71.23997571	    106.87946127
      1.91000000	    -22.35030707	      4.83661297	     -3.94609393	     -0.25061417	      0.73686153	     -0.55534280	     69.27818918	      3.43983016	     16.34925060	     83.28346261	      1.45357063	     31.53770007	    -16.13701077	     -7.50007707	     72.27142396	     -5.69932118	     -2.01408213	     80.84411005	      1.41099590	     25.30796606	    -16.07931272	     -7.50007707	    -15.32240145	     -4.50382368	      4.32015649	    142.67474938	     -6.75707679	     34.26052300	     75.45442116	    101.99204531	    144.54347927	     -4.72491480	     34.12463460	     70.89878619	    107.13321723
      1.92000000	    -22.15735975	      4.78504573	     -4.15121344	     -0.24309357	      0.74985176	     -0.55443745	     67.24193588	      3.45479542	     16.46154625	     80.99542725	      1.41363688	     30.21025355	    -16.32816842	     -7.50007578	     70.23652339	     -5.77248737	     -2.20904566	     78.72113178	      1.37394294	     23.98627216	    -16.03961126	     -7.50007578	    -13.73431625	     -4.56531014	      4.89544136	    143.88548936	     -6.99661177	     34.50785524	     76.34964467	    101.88251053	    145.74824533	     -4.55197862	     35.22071424	     70.79014365	    107.21657327
      1.93000000	    -21.95653874	      4.70198268	     -4.33711888	     -0.23571317	      0.76336087	     -0.55350377	     65.19652370	      3.45295834	     16.46960145	     78.54740979	      1.37091092	     27.97955130	    -17.57033195	     -7.50007315	     68.14446848	     -5.74234523	     -2.31857784	     76.39922724	      1.33341806	     22.08729176	    -16.91949546	     -7.50007315	    -12.01436016	     -4.66759379	      5.55786733	    144.86554678	     -7.57249998	     35.07933637	     77.05048208	    101.70880312	    146.74084074	     -4.16272294	     36.73803628	     69.92889265	    107.34606698
      1.94000000	    -21.59782561	      4.50444887	     -4.54925350	     -0.22816004	      0.77775920	     -0.55258972	     62.86539355	      3.45975808	     16.44282817	     75.91101100	      1.32489708	     26.53838882	    -17.32582627	     -7.50007226	     65.82085831	     -5.84822088	     -2.37248029	     73.98592333	      1.29129796	     20.69258671	    -16.54825038	     -7.50007226	    -10.40512425	     -4.51928163	      6.35422567	    145.52155822	     -7.86398178	     35.30756847	     77.35089924	    101.66860161	    147.11118376	     -3.87603054	     37.63256576	     69.52613719	    107.35390866
      1.95000000	    -21.02285816	      4.36317215	     -4.77522860	     -0.22088029	      0.79310789	     -0.55177069	     60.30740915	      3.39372590	     16.51728866	     73.09216229	      1.27569889	     24.24393286	    -17.75948958	     -7.50007096	     63.21991979	     -5.89150695	     -2.49386523	     71.34726762	      1.24524473	     18.59550498	    -16.66014213	     -7.50007096	     -9.31309180	     -4.42531709	      7.11429580	    146.62379708	     -8.23587285	     35.82492517	     77.39008909	    101.67095599	    147.98760073	     -3.67456241	     38.84282499	     68.91316057	    107.42693589
      1.96000000	    -20.49759178	      4.18879390	     -4.95773576	     -0.21380978	      0.80894012	     -0.55099897	     57.83489991	      3.27704818	     16.47811675	     70.11021163	      1.22365403	     20.67734264	    -19.38754848	     -7.50006802	     60.65410886	     -5.88883321	     -2.57069421	     68.48894303	      1.19535756	     15.67577213	    -17.81017936	     -7.50006802	     -8.22059909	     -4.18911233	      7.70773214	    147.55882876	     -8.28935823	     36.15717093	     76.61842700	    101.71384070	    148.75952118	     -3.80971420	     40.23988301	     68.38489804	    107.69491557
      1.97000000	    -19.81711924	      3.96207174	     -5.19021141	     -0.20651799	      0.82596099	     -0.55018600	     55.11834885	      3.09491877	     16.36847899	     66.91902232	      1.16795727	     17.59513709	    -19.75288994	     -7.50006509	     57.79034757	     -5.99264985	     -2.72880706	     65.39424247	      1.14134484	     13.03428279	    -18.02469541	     -7.50006509	     -7.43651939	     -3.85274662	      8.32578163	    148.27873336	     -8.12948914	     35.90553427	     75.64504818	    101.71082735	    149.40137868	     -4.03355197	     41.25772904	     68.30140488	    107.99635999
      1.98000000	    -19.10788078	      3.73010507	     -5.38584256	     -0.19869647	      0.84420049	     -0.54941206	     52.20305648	      2.78379280	     16.15021910	     63.35808493	      1.10580719	     14.25499454	    -19.92877850	     -7.50006213	     54.69249364	     -6.09998950	     -3.00586549	     61.90607647	      1.08046486	     10.05503761	    -18.19331844	     -7.50006213	     -6.71791574	     -3.42164196	      8.78599339	    148.59730660	     -7.72120240	     35.22329890	     74.44115416	    101.63232836	    149.90082052	     -4.51334995	     42.27991596	     68.44435860	    108.43858745
      1.99000000	    -18.42595037	      3.55622828	     -5.51291322	     -0.19045804	      0.86349119	     -0.54893579	     49.15033005	      2.21515727	     15.86630381	     59.43233158	      1.03728987	     11.74655769	    -18.43999502	     -7.50006152	     51.40471106	     -6.14225046	     -3.37597768	     58.00991422	      1.01246400	      7.76413084	    -16.89933753	     -7.50006152	     -5.83221897	     -2.95829671	      9.33072452	    148.41451180	     -7.42541792	     34.81000291	     73.16690733	    101.48551406	    149.86585290	     -4.83450696	     42.94832959	     68.32354969	    108.52313187
      2.00000000	    -17.13309925	      3.51292669	     -5.71578624	     -0.18225712	      0.88491494	     -0.54837346	     45.32674065	      1.45653876	     15.54416177	     54.93260066	      0.95875475	      6.45930468	    -19.40011168	     -7.50005842	     47.17110427	     -6.02386809	     -4.03221617	     53.36597719	      0.93141201	      3.03595364	    -17.69364096	     -7.50005842	     -5.89424131	     -2.72650626	      9.14344436	    147.94529799	     -6.46604195	     33.20318627	     71.56748096	    101.47588618	    150.64655219	     -5.85124682	     44.49316386	     68.68140357	    109.56767807
      2.01000000	    -15.82918731	      3.47723022	     -5.85273754	     -0.17411290	      0.90695530	     -0.54813362	     41.41154107	      0.47796725	     15.04543361	     50.14202349	      0.87514340	      1.96911547	    -18.50408906	     -7.50005567	     42.78181454	     -5.81819653	     -4.63746796	     48.33222721	      0.84355650	     -1.12398139	    -17.00909428	     -7.50005567	     -5.72852347	     -2.62201572	      9.46610664	    147.05332836	     -6.38946142	     32.40527578	     70.21880060	    101.75802332	    150.56713600	     -5.92305960	     45.16750080	     68.26755034	    110.94703994
      2.02000000	    -14.45847680	      3.46116211	     -5.89784960	     -0.16597975	      0.92963992	     -0.54811278	     37.30087230	     -0.71948794	     14.28826768	     44.96879659	      0.78485356	     -2.31413108	    -16.46411536	     -7.50005481	     38.14878090	     -5.48314808	     -5.22234088	     42.80090922	      0.74701679	     -5.43188424	    -15.53360305	     -7.50005481	     -5.64783338	     -2.53950952	      9.79546168	    146.05103713	     -6.55606125	     32.15038080	     68.75325175	    101.87354468	    150.28396917	     -5.88657619	     45.65761153	     67.88669727	    111.69583512
      2.03000000	    -13.17685937	      3.46992692	     -5.86098918	     -0.15798035	      0.95270331	     -0.54820463	     33.08771450	     -1.98744142	     13.44921634	     39.23898748	      0.68484953	     -7.50070252	    -14.05124652	     -7.50005557	     33.45419606	     -5.00098959	     -5.65122482	     36.72404870	      0.64095556	    -10.74878716	    -13.93328387	     -7.50005557	     -5.51686736	     -2.44402997	      9.96629033	    144.79534284	     -6.77374515	     31.98610598	     67.31663230	    102.55754833	    149.86344234	     -5.97822474	     45.94273004	     67.62584523	    112.96367411
      2.04000000	    -12.05968763	      3.55125358	     -5.80430203	     -0.15016225	      0.97592676	     -0.54839271	     28.85731063	     -3.27870734	     12.65910103	     32.88270566	      0.57391148	    -13.88840137	    -11.91795690	     -7.50005579	     28.74921760	     -4.32098518	     -5.70461666	     29.99430406	      0.52349936	    -17.79653656	    -13.33617412	     -7.50005579	     -5.14212559	     -2.36451823	     10.17782510	    143.03483904	     -7.01712216	     31.77188989	     66.06441081	    103.30191894	    148.89689020	     -6.09199792	     45.79141393	     67.73176401	    113.56480874
      2.05000000	    -10.94378541	      3.60603080	     -5.82913425	     -0.14247257	      0.99917921	     -0.54834231	     24.50896785	     -4.49704841	     11.78367645	     26.10407412	      0.45560204	    -20.28972153	     -8.38016972	     -7.50005669	     23.96932230	     -3.78384270	     -5.71730145	     22.84391538	      0.39870154	    -25.09377843	    -11.26988935	     -7.50005669	     -4.80102662	     -2.29172668	     10.46543449	    141.13066664	     -7.59025766	     31.98640529	     65.11573298	    104.06383145	    147.77020192	     -6.29829886	     45.77552173	     67.94091856	    113.54570031
